# xmcd CD database file
#
# Track frame offsets:
#	150
#	21570
#	36168
#	49664
#	67669
#	84795
#	86523
#	90686
#	109256
#	126696
#	131204
#	138441
#	158321
#	185313
#	199265
#	215309
#	231437
#	254388
#
# Disc length: 3436 seconds
#
# Revision: 0
# Processed by: cddbd v1.5.2PL0 Copyright (c) Steve Scherf et al.
# Submitted via: CDex 1.51
#
DISCID=f90d6a12
DTITLE=André Minvielle - 1 Time
DYEAR=2016
DGENRE=Jazz
TTITLE0=Feat.Bernard Lubat_Intime One Time
TTITLE1=Feat.Abdel Sefsaf_Le Facteur D'Accent
TTITLE2=L'(Accenseur
TTITLE3=Feat.Ti'bal Tribal_Sacré Eole
TTITLE4=Feat.Journal Intime_Le Verbier
TTITLE5=Mélée Bleu
TTITLE6=Feat.Journal Intime_Abide With Me
TTITLE7=Feat.Ti'bal Tribal and Journal Intime_Nino
TTITLE8=La Bourdique
TTITLE9=Présentation
TTITLE10=Feat.Abdel Sefsaf_A Fungi !
TTITLE11=Etranges Etrangers
TTITLE12=Keskifon
TTITLE13=Les Crapauds
TTITLE14=Feat.Ti'bal Tribal_Madada
TTITLE15=J'Emets, J'Emets
TTITLE16=Feat.Journal Intime_L'Artificière
TTITLE17=Fléau
EXTD=YEAR: 2016
EXTT0=
EXTT1=
EXTT2=
EXTT3=
EXTT4=
EXTT5=
EXTT6=
EXTT7=
EXTT8=
EXTT9=
EXTT10=
EXTT11=
EXTT12=
EXTT13=
EXTT14=
EXTT15=
EXTT16=
EXTT17=
PLAYORDER=
